<?xml version="1.0" standalone="no"?>
<!DOCTYPE svg PUBLIC "-//W3C//DTD SVG 20010904//EN"
 "http://www.w3.org/TR/2001/REC-SVG-20010904/DTD/svg10.dtd">
<svg version="1.0" xmlns="http://www.w3.org/2000/svg"
 width="654.000000pt" height="480.000000pt" viewBox="0 0 654.000000 480.000000"
 preserveAspectRatio="xMidYMid meet">

<g transform="translate(0.000000,480.000000) scale(0.100000,-0.100000)"
fill="#000000" stroke="none">
<path d="M2030 4792 c0 -4 11 -19 24 -33 13 -14 33 -44 44 -65 11 -22 42 -75
69 -119 68 -111 69 -113 88 -175 9 -30 26 -75 37 -99 15 -34 19 -59 16 -104
-4 -49 -1 -61 14 -70 26 -17 22 -27 -11 -27 -22 0 -31 6 -39 28 -14 40 -35
114 -38 138 -1 12 -10 37 -20 55 -9 18 -23 62 -30 97 -15 71 -68 192 -117 265
-43 64 -89 81 -196 75 -71 -4 -82 -8 -109 -34 -16 -16 -42 -57 -57 -91 -17
-36 -38 -66 -51 -72 -16 -7 -25 -22 -29 -48 -4 -21 -12 -51 -18 -68 -7 -16
-11 -65 -11 -107 2 -61 -1 -78 -12 -78 -35 0 7 -54 49 -62 31 -6 50 11 21 18
-17 4 -19 16 -19 98 0 62 4 98 13 109 10 12 11 21 2 36 -15 29 -3 64 34 103
18 18 35 41 39 52 7 17 9 17 25 3 9 -8 31 -17 47 -19 22 -2 34 -11 47 -36 9
-19 24 -39 34 -46 18 -14 13 -53 -6 -41 -16 10 -90 -15 -90 -30 0 -8 -3 -15
-8 -15 -9 0 -32 -72 -32 -103 0 -13 5 -28 12 -35 8 -8 8 -15 -1 -25 -15 -18
-5 -44 20 -52 22 -7 24 -18 8 -47 -14 -26 -9 -30 59 -43 55 -12 57 -13 55 -43
-2 -17 2 -34 7 -37 15 -9 12 -41 -5 -55 -8 -7 -15 -25 -15 -40 0 -24 3 -27 25
-22 17 3 25 0 25 -10 0 -23 -11 -28 -33 -17 -14 8 -22 8 -27 -1 -9 -15 -30 -4
-30 15 0 8 -9 19 -19 24 -12 7 -21 25 -24 53 -7 61 -32 141 -45 146 -6 2 -12
-13 -14 -35 -2 -30 -9 -41 -30 -51 -16 -7 -28 -20 -28 -28 0 -8 -10 -34 -21
-59 -12 -25 -19 -54 -16 -65 6 -22 -8 -37 -18 -20 -3 5 -15 10 -25 10 -21 0
-40 28 -50 75 -5 23 -11 29 -28 28 -12 -2 -22 2 -22 9 0 6 -11 1 -24 -12 -26
-23 -39 -64 -38 -112 0 -16 -4 -28 -9 -28 -6 0 -7 -4 -4 -10 3 -5 0 -10 -8
-10 -8 0 -18 -14 -22 -32 -4 -18 -9 -27 -12 -20 -10 25 -22 11 -28 -33 -4 -24
-12 -43 -18 -42 -6 1 -17 -16 -24 -38 -19 -60 -56 -125 -71 -125 -7 0 -15 -7
-18 -15 -3 -8 -15 -17 -26 -20 -15 -5 -18 -13 -13 -34 8 -37 -53 -113 -114
-143 -39 -19 -43 -23 -27 -32 10 -6 37 -23 61 -39 l42 -27 69 16 c38 9 76 21
84 25 8 5 22 12 30 16 8 4 18 11 22 17 5 8 8 7 8 -1 0 -6 -4 -15 -10 -18 -17
-10 -11 -25 9 -25 10 0 22 -7 25 -16 5 -13 16 -14 63 -8 32 4 148 8 258 8
l200 1 5 45 5 45 8 -42 c8 -49 13 -53 50 -46 23 5 28 12 33 45 8 46 37 78 72
78 54 0 81 -42 46 -71 -15 -12 -18 -11 -27 3 -10 14 -14 13 -39 -14 -17 -19
-28 -41 -28 -59 0 -33 -7 -37 -25 -13 -9 13 -16 14 -33 5 -18 -10 -19 -15 -10
-47 11 -41 7 -50 -18 -36 -14 8 -22 5 -36 -10 -9 -11 -22 -17 -28 -13 -5 3
-13 0 -16 -8 -3 -9 -13 -13 -25 -10 -24 7 -27 -28 -4 -47 8 -7 13 -16 10 -20
-14 -22 59 -41 103 -26 12 4 29 19 37 34 14 27 15 27 21 5 9 -32 24 -18 24 22
0 31 20 63 20 33 1 -7 17 -21 36 -30 l36 -17 -5 29 c-4 15 -9 40 -13 55 -5 21
-3 26 7 23 7 -2 18 -27 25 -54 l12 -49 1 42 c1 27 -6 55 -19 75 -28 47 -25 56
9 24 16 -16 31 -23 35 -18 3 6 0 12 -6 15 -10 3 -10 7 1 20 7 10 10 24 6 34
-4 10 -9 54 -11 98 -4 88 6 85 26 -7 7 -32 17 -58 22 -58 8 0 48 36 48 44 0 2
-9 6 -20 9 -14 4 -18 10 -14 24 9 24 35 53 47 53 6 0 18 7 27 15 14 12 19 13
34 2 15 -11 17 -17 7 -35 -10 -19 -9 -22 9 -22 11 0 20 5 20 11 0 7 7 17 16
24 26 19 5 71 -27 67 -19 -1 -27 5 -35 26 -20 53 11 74 34 23 10 -23 22 -31
52 -36 47 -8 147 -60 132 -69 -5 -3 -15 1 -22 9 -16 20 -54 19 -74 -1 -18 -17
-13 -34 9 -34 8 0 30 -9 49 -21 20 -12 36 -18 36 -14 0 3 10 -1 22 -9 12 -9
30 -16 40 -16 27 0 22 -13 -14 -33 -19 -11 -34 -14 -36 -8 -4 11 -32 3 -32 -9
0 -5 10 -11 23 -13 19 -4 19 -4 -5 -6 -19 -1 -29 5 -33 19 -4 11 -11 18 -16
14 -6 -4 -6 -11 1 -19 7 -8 7 -15 1 -19 -5 -4 -16 7 -24 24 -9 17 -11 32 -6
36 13 7 1 24 -17 24 -8 0 -14 -6 -14 -14 0 -9 -7 -12 -19 -9 -13 3 -21 -2 -26
-16 -4 -14 -15 -21 -31 -21 -20 0 -24 5 -24 30 0 22 -4 28 -15 24 -8 -4 -15
-17 -15 -31 0 -13 4 -21 10 -18 5 3 15 -3 22 -15 7 -11 18 -20 24 -20 7 0 10
-8 7 -20 -4 -15 -11 -19 -24 -15 -16 5 -19 1 -19 -25 0 -27 -3 -30 -24 -24
-21 5 -25 2 -29 -23 l-4 -28 -2 28 c-1 31 -6 33 -27 13 -20 -20 -18 -52 5 -75
11 -11 25 -29 31 -41 11 -21 12 -21 25 -3 19 25 23 17 30 -57 3 -35 8 -66 10
-68 2 -2 0 -15 -5 -28 -13 -34 -4 -52 26 -46 13 2 24 8 24 13 0 5 9 9 20 9 11
0 20 7 20 15 0 17 46 21 68 6 12 -7 11 -14 -2 -40 -19 -37 -20 -37 -43 -11
-26 27 -61 17 -65 -19 -2 -14 -9 -25 -15 -23 -7 1 -13 -7 -13 -17 0 -11 -3
-27 -6 -36 -5 -13 -10 -7 -21 22 -7 21 -15 49 -17 63 -11 71 -40 83 -31 13 3
-26 2 -55 -1 -65 -10 -32 -24 -19 -24 21 0 43 -8 54 -30 41 -10 -6 -15 -30
-16 -72 -3 -87 -16 -143 -34 -143 -8 0 -20 -4 -26 -7 -16 -10 -24 1 -24 31 0
20 2 23 10 11 14 -22 19 -10 31 76 11 83 19 99 50 109 20 7 26 39 9 50 -6 3
-13 -1 -16 -9 -8 -20 -27 -20 -64 -1 l-30 16 0 -37 c0 -29 -3 -35 -16 -30 -9
3 -18 6 -20 6 -2 0 -4 9 -4 19 0 28 -12 32 -38 11 -20 -16 -21 -22 -10 -45 6
-14 17 -24 23 -21 8 3 12 -11 12 -40 0 -24 -1 -44 -3 -44 -1 0 -33 32 -70 71
-86 88 -122 109 -254 148 -79 24 -138 33 -235 40 -72 4 -136 6 -142 3 -23 -8
-13 16 14 36 l28 20 -39 8 c-24 4 -52 2 -73 -5 -22 -8 -38 -9 -46 -3 -7 5 -61
14 -120 20 -107 10 -108 10 -170 -18 -35 -16 -67 -37 -73 -48 -13 -28 -114
-112 -135 -112 -9 0 -22 -7 -29 -15 -7 -8 -18 -15 -24 -15 -12 0 -46 -35 -46
-47 0 -3 -24 -32 -54 -63 -29 -31 -66 -81 -81 -111 -15 -29 -31 -56 -34 -59
-4 -3 -24 -35 -44 -71 -20 -36 -43 -71 -51 -78 -8 -6 -26 -38 -40 -69 -15 -31
-33 -69 -41 -85 -8 -15 -12 -34 -9 -42 3 -8 -4 -36 -16 -62 -12 -27 -27 -61
-35 -78 -15 -34 -43 -109 -90 -240 -17 -49 -39 -106 -48 -125 -9 -19 -26 -62
-37 -95 -12 -33 -25 -69 -30 -80 -5 -11 -12 -36 -16 -55 -11 -51 -16 -996 -6
-985 12 14 48 120 63 185 7 30 25 76 41 102 16 26 27 52 23 58 -17 27 57 -12
111 -59 23 -20 67 -56 97 -81 31 -25 59 -53 62 -63 4 -10 17 -29 31 -44 26
-28 29 -53 15 -138 -5 -30 -5 -52 1 -56 11 -7 3 -63 -18 -127 -8 -23 -14 -58
-14 -77 0 -19 -4 -35 -8 -35 -4 0 -14 -26 -21 -57 -7 -32 -15 -68 -18 -81 l-5
-22 1111 0 c734 0 1111 3 1111 10 0 6 -8 11 -17 12 -10 0 2 4 27 7 26 3 49 2
53 -4 5 -6 7 2 4 17 -2 15 0 25 4 22 5 -3 9 -17 10 -32 0 -19 7 -8 23 38 13
36 28 79 34 95 54 148 54 148 42 271 -9 101 -8 119 5 134 8 9 12 20 8 23 -15
16 14 5 36 -13 19 -17 21 -23 11 -35 -10 -12 -10 -15 2 -15 22 0 44 29 73 94
25 57 27 58 57 52 18 -3 39 -13 48 -21 24 -21 76 -19 92 4 13 18 29 25 56 22
9 -1 6 -11 -10 -33 -13 -17 -33 -52 -45 -77 l-21 -46 -1 38 -1 38 -25 -18
c-27 -20 -33 -32 -46 -83 -13 -57 -3 -75 57 -99 30 -13 57 -27 60 -32 3 -5
-13 -2 -36 7 -46 18 -68 12 -26 -8 21 -9 26 -16 21 -32 -4 -12 -9 -31 -12 -44
-3 -12 -11 -22 -19 -22 -23 0 -24 -17 -3 -45 17 -21 20 -31 11 -49 -8 -18 -16
-22 -41 -18 -61 9 -82 -52 -31 -90 54 -39 28 -47 -30 -8 -24 16 -26 16 -62
-22 l-38 -38 481 0 c413 0 480 2 470 14 -10 12 -6 14 28 10 36 -4 40 -3 34 13
-3 10 -15 25 -26 35 -20 15 -19 16 24 8 49 -9 67 -5 24 6 -27 7 -27 8 -9 21
16 12 17 15 4 23 -8 5 -11 12 -7 16 4 4 2 13 -4 20 -7 9 -6 19 3 33 12 19 10
24 -20 52 -31 29 -43 47 -22 34 5 -3 12 5 16 19 4 16 27 39 60 61 29 20 53 41
51 48 -1 8 11 12 35 11 l37 -1 -24 19 c-31 24 -32 38 -2 32 12 -3 -3 5 -33 17
-30 12 -58 26 -61 32 -4 5 -16 7 -28 4 -25 -6 -26 -1 -7 19 16 15 17 24 42
304 9 102 18 187 20 189 2 3 91 -30 197 -72 105 -42 207 -82 225 -88 26 -9 30
-14 21 -25 -15 -18 -3 -34 26 -34 16 0 31 -10 42 -28 26 -41 53 -56 53 -29 0
7 6 21 13 31 12 16 19 15 117 -24 58 -23 107 -46 108 -51 2 -5 7 -7 11 -4 4 2
32 -5 62 -16 115 -44 286 -112 329 -132 25 -11 79 -32 120 -48 263 -98 330
-125 330 -133 0 -5 -10 -17 -22 -28 -19 -17 -23 -17 -26 -4 -4 18 -32 10 -32
-9 0 -7 -6 -16 -12 -19 -7 -3 -2 -3 10 0 21 5 22 4 13 -13 -5 -11 -16 -24 -23
-30 -18 -15 -108 -4 -108 12 0 7 -15 16 -34 19 -19 4 -36 13 -39 20 -6 16 -87
28 -102 16 -12 -10 -83 5 -99 21 -6 5 -25 9 -42 9 -18 0 -36 5 -39 10 -3 6
-24 10 -45 10 -27 0 -38 4 -35 12 4 9 -9 14 -40 16 -37 2 -45 -1 -46 -15 0
-16 -1 -16 -8 1 -6 15 -9 17 -16 6 -6 -10 -11 -9 -21 5 -8 10 -16 16 -19 14
-8 -8 7 -49 16 -43 13 7 11 -20 -2 -33 -6 -6 -9 -26 -7 -44 3 -32 5 -34 51
-41 49 -7 74 -22 112 -68 37 -45 47 -74 47 -142 l1 -68 73 0 c48 0 74 4 78 13
4 9 7 9 12 0 4 -8 178 -12 675 -13 l669 -1 0 612 c0 542 -2 610 -15 599 -12
-10 -15 -10 -15 3 0 9 7 20 16 25 9 5 14 16 13 26 -3 13 -16 8 -64 -29 -33
-24 -65 -45 -71 -45 -22 0 -36 29 -29 58 13 63 70 88 139 62 24 -9 26 -8 26
20 0 32 -15 44 -70 53 -19 3 -48 11 -65 18 -16 7 -33 12 -37 11 -13 -3 -9 36
6 73 14 33 24 39 52 36 11 -1 27 39 19 47 -3 3 -12 -1 -21 -8 -14 -12 -15 -10
-9 26 13 81 94 264 116 264 5 0 9 17 9 38 l-1 37 -25 -30 c-14 -16 -38 -55
-53 -85 -32 -62 -98 -233 -104 -270 -2 -14 -7 -33 -11 -42 -4 -9 -5 -21 -2
-26 8 -13 -18 -74 -28 -65 -4 5 -4 -5 0 -21 5 -22 4 -27 -6 -21 -9 5 -11 4 -6
-3 8 -13 -6 -72 -31 -129 -9 -21 -16 -42 -15 -46 2 -5 -6 -23 -17 -40 -27 -44
-51 -143 -52 -213 0 -50 -2 -55 -10 -34 -14 35 -4 106 42 283 22 84 47 181 56
216 12 48 14 66 5 69 -6 2 -22 12 -34 22 -20 17 -20 19 -5 20 9 0 17 4 17 10
0 6 9 6 25 0 19 -7 27 -6 30 3 30 83 34 101 25 112 -5 6 -6 15 -2 19 4 4 0 6
-8 4 -10 -2 -16 10 -20 44 -4 31 -14 55 -30 71 -65 64 -89 94 -81 103 5 5 12
19 16 32 5 19 3 22 -19 22 -14 0 -26 4 -26 9 0 5 -17 11 -37 15 -69 11 -98 17
-102 21 -2 3 2 18 9 35 17 40 7 47 -35 27 -20 -9 -37 -17 -39 -17 -6 0 13 81
25 111 11 28 59 45 77 27 4 -4 43 -12 85 -18 43 -5 85 -14 95 -18 9 -5 49 -12
87 -16 60 -5 110 -18 188 -51 15 -6 17 -1 17 34 0 45 -2 46 -32 30 -21 -11
-57 -5 -165 28 -43 13 -51 19 -43 32 7 13 29 16 110 18 90 1 103 3 116 21 12
18 14 90 11 454 -2 376 -5 441 -20 498 -10 36 -22 69 -27 74 -14 14 -31 -67
-29 -141 1 -37 -3 -80 -9 -95 -6 -15 -18 -73 -26 -130 -9 -57 -25 -157 -36
-223 -11 -66 -20 -121 -20 -122 0 -2 -6 -3 -14 -3 -24 0 -32 133 -22 378 4 93
3 114 -9 119 -8 3 -15 19 -16 37 -5 212 -5 294 1 310 4 11 2 32 -4 48 -12 32
-5 42 37 52 21 5 29 2 33 -11 3 -10 10 -26 15 -35 5 -10 9 -28 9 -41 0 -12 9
-30 20 -40 12 -10 20 -29 20 -49 0 -46 18 -22 21 29 2 24 -2 48 -9 55 -7 7
-12 22 -12 35 0 12 -7 47 -15 78 -8 31 -12 61 -9 68 6 18 62 40 84 34 14 -4
20 0 20 13 0 14 -12 19 -57 24 -117 12 -243 40 -243 52 0 12 -19 17 -168 45
-42 8 -66 17 -69 28 -18 55 -47 99 -75 116 -28 16 -62 20 -228 26 -107 5 -213
13 -235 18 -22 6 -57 8 -78 4 -52 -8 -64 -35 -49 -105 7 -29 9 -63 6 -74 -3
-12 -1 -25 5 -28 15 -10 14 -36 -2 -36 -7 0 -20 15 -29 33 -19 39 -47 216 -43
277 2 25 -3 65 -11 90 -7 25 -18 66 -25 91 -8 34 -24 59 -60 95 -27 27 -49 54
-49 60 0 6 -12 19 -26 29 -23 15 -27 15 -50 0 -13 -8 -24 -20 -24 -25 0 -6
-15 -27 -34 -47 -18 -21 -39 -49 -45 -61 -7 -13 -15 -21 -18 -18 -11 11 8 56
42 96 19 23 35 46 35 50 0 9 -93 5 -109 -4 -5 -4 -12 -2 -15 3 -4 5 2 12 11
15 10 3 -6 4 -35 2 -35 -2 -59 -9 -70 -21 -16 -16 -15 -17 11 -13 34 6 35 -5
1 -20 -20 -10 -24 -10 -18 0 6 9 3 9 -9 -1 -9 -7 -14 -18 -11 -23 3 -5 -1 -17
-9 -26 -21 -23 -35 -78 -17 -67 10 6 12 1 6 -26 -5 -26 -4 -31 6 -21 25 25 36
14 27 -25 -10 -46 -3 -55 19 -26 10 12 25 33 34 45 17 22 17 21 16 -45 0 -38
-4 -81 -8 -95 l-7 -27 -8 30 c-12 50 -12 51 -23 25 -5 -14 -17 -41 -25 -60
l-15 -35 4 59 c2 33 2 57 0 55 -2 -2 -16 -26 -30 -53 l-26 -49 0 34 c0 19 6
59 14 89 8 30 13 56 11 58 -5 5 -61 -158 -75 -215 -6 -29 -14 -53 -17 -53 -3
0 -2 28 1 63 6 58 6 60 -8 37 -8 -14 -18 -44 -22 -67 -8 -53 -24 -56 -24 -6 0
33 -2 35 -14 23 -13 -13 -33 -96 -56 -230 -12 -69 -12 -223 -1 -254 9 -23 14
-25 31 -16 12 6 25 21 30 33 7 19 9 16 9 -16 1 -23 5 -36 11 -32 6 3 10 1 10
-5 0 -14 -36 -160 -51 -208 -11 -35 -29 -34 -30 1 0 21 -1 21 -9 2 l-9 -20 -1
20 c-2 11 -6 -2 -10 -28 -6 -31 -4 -70 4 -110 14 -63 13 -77 -5 -77 -6 0 -7 5
-4 10 3 6 2 10 -3 10 -9 0 -21 66 -24 133 -3 73 -26 -31 -28 -125 0 -16 -5
-28 -11 -28 -5 0 -8 4 -5 9 3 4 6 47 7 94 1 48 7 117 14 154 7 38 11 71 8 76
-8 13 -23 -3 -23 -26 0 -34 -16 -55 -32 -39 -6 6 -21 12 -32 12 -19 0 -19 1 2
23 19 20 20 30 15 100 -7 92 -23 103 -23 15 -1 -59 -2 -62 -16 -43 -17 21 -17
22 2 -134 4 -32 2 -41 -7 -36 -14 9 -4 -57 13 -85 7 -10 8 -28 3 -46 -4 -16
-7 -40 -6 -53 2 -13 -2 -27 -8 -31 -7 -4 -13 -31 -15 -61 -2 -34 -13 -72 -30
-102 -14 -26 -26 -50 -26 -51 0 -2 9 -6 20 -9 31 -8 24 -22 -22 -43 -47 -21
-52 -37 -13 -42 34 -4 32 -15 -6 -29 -17 -7 -28 -17 -24 -22 3 -6 1 -11 -4
-11 -6 0 -11 -4 -11 -10 0 -5 7 -10 16 -10 8 0 12 -5 8 -11 -4 -8 1 -9 17 -4
21 7 22 6 10 -9 -12 -14 -10 -16 15 -16 l29 -1 -27 -15 c-39 -21 -35 -24 20
-18 l47 5 -24 -20 -23 -21 48 -1 c44 0 46 -1 24 -11 -18 -7 -21 -12 -10 -15
44 -14 44 -13 24 -28 -18 -14 -18 -14 9 -15 17 0 26 -4 22 -11 -4 -6 3 -13 14
-16 20 -5 20 -7 5 -18 -23 -17 -11 -31 33 -40 l38 -8 -55 -11 c-63 -13 -118
-44 -154 -87 -32 -38 -41 -66 -26 -84 10 -12 10 -19 -1 -32 -31 -36 -104 -51
-178 -37 -39 8 -40 24 -1 24 32 0 136 36 145 50 18 29 -152 45 -194 18 -31
-19 -35 -41 -12 -60 23 -18 28 -50 9 -47 -36 4 -38 0 -38 -108 0 -71 -3 -103
-10 -93 -5 8 -9 70 -8 138 0 68 -2 125 -4 128 -3 2 -63 22 -134 43 l-129 38
-222 -111 c-123 -61 -223 -113 -223 -117 0 -8 214 -79 241 -79 14 0 29 -4 35
-10 10 -10 590 -209 834 -286 80 -26 147 -48 149 -50 11 -10 -9 -13 -35 -5
-60 19 -664 215 -794 257 -74 24 -146 44 -161 44 -15 0 -29 5 -31 12 -3 7 -21
12 -41 12 -20 0 -37 2 -37 6 0 3 -12 6 -27 7 l-28 1 25 -14 c25 -13 25 -13 3
-14 -32 0 -29 -26 5 -35 l27 -7 -25 -10 c-52 -19 -42 -32 48 -61 48 -15 141
-45 207 -67 66 -21 160 -50 208 -65 49 -15 87 -28 85 -30 -5 -5 -66 11 -218
58 -261 81 -357 110 -400 122 -25 7 -150 45 -278 84 -175 53 -238 69 -251 61
-13 -6 -41 -5 -87 4 -108 22 -164 28 -164 18 0 -5 53 -17 118 -28 l117 -19 -3
-140 c-1 -77 -7 -205 -12 -285 -5 -80 -12 -209 -15 -287 -6 -134 -6 -142 14
-162 12 -12 17 -21 11 -21 -28 0 -3 -21 60 -51 90 -42 84 -50 -8 -10 -39 16
-73 27 -76 24 -3 -3 -11 -1 -18 5 -19 15 -61 19 -65 6 -2 -6 11 -16 29 -21 25
-8 28 -11 11 -12 -12 -1 -23 -6 -25 -11 -5 -16 -73 21 -98 52 -12 16 -31 28
-43 27 -19 0 -17 -3 11 -16 17 -9 32 -20 32 -25 0 -11 -2 -11 -55 12 -71 30
-89 27 -125 -25 -17 -25 -35 -45 -40 -45 -6 0 -18 -8 -28 -18 -9 -9 -33 -25
-52 -34 -41 -20 -66 -10 -82 30 -5 15 -17 42 -24 61 -30 68 -38 178 -20 271 9
47 23 136 31 199 8 63 17 123 21 133 9 31 30 5 58 -75 34 -98 90 -424 78 -456
-3 -9 0 -12 9 -9 23 8 15 222 -15 401 -14 84 -28 191 -30 238 -5 88 -12 119
-26 119 -13 0 -40 90 -40 133 0 30 4 40 20 44 27 7 25 21 -2 25 -31 4 -54 57
-63 142 -3 38 -11 80 -17 95 -5 14 -11 60 -14 101 -2 41 -6 111 -9 155 l-7 80
28 -40 c15 -22 29 -42 30 -44 2 -2 11 2 19 9 14 12 15 10 10 -13 -6 -23 -3
-28 20 -37 42 -16 79 -12 129 15 26 14 54 25 62 25 8 0 34 9 56 20 23 11 50
18 60 14 12 -3 18 0 18 9 0 8 7 20 15 27 13 10 15 9 15 -8 0 -12 5 -24 10 -27
6 -3 10 -22 10 -41 0 -40 15 -38 23 3 4 20 -4 48 -26 93 -18 36 -36 68 -42 72
-5 4 -6 10 -3 14 4 4 3 15 -3 25 -13 26 -1 24 21 -3 10 -13 21 -20 24 -17 4 3
-4 19 -16 35 -13 15 -30 49 -38 74 -14 42 -14 48 4 93 10 26 22 47 27 47 4 0
106 -24 226 -54 243 -60 293 -69 293 -55 0 5 -5 9 -11 9 -5 0 -7 5 -4 10 4 6
1 17 -5 25 -7 8 -13 32 -16 53 -5 55 -28 117 -42 114 -7 -1 -12 7 -12 19 0 12
-8 23 -19 26 -10 2 -25 17 -32 31 -7 15 -27 45 -43 66 -17 22 -30 48 -31 59 0
23 -24 33 -108 42 -33 4 -55 11 -51 16 3 6 31 7 67 4 88 -9 385 -53 429 -64
27 -6 44 -5 65 6 15 9 42 19 58 24 17 4 57 17 89 28 33 12 76 21 97 21 21 0
41 5 44 10 10 16 35 12 29 -5 -4 -10 0 -15 11 -15 22 0 118 32 125 42 9 12 88
37 94 30 4 -3 9 4 13 16 6 26 20 29 26 5 4 -17 5 -17 6 0 0 9 5 17 9 17 5 0
22 25 37 55 18 34 36 55 46 55 20 0 16 -22 -16 -95 -20 -46 -76 -183 -165
-403 -55 -139 -68 -194 -41 -177 6 3 8 12 5 19 -5 12 32 104 90 231 56 120 74
162 85 193 6 19 22 43 36 54 14 11 25 26 25 34 0 14 14 15 147 18 l28 1 -4
-186 c-3 -181 -2 -186 18 -192 24 -6 32 10 18 37 -6 13 -6 69 2 170 15 175 17
187 37 179 9 -3 14 2 14 15 0 11 -8 23 -19 27 -10 3 -21 18 -24 34 -6 28 -10
30 -74 37 -75 9 -72 8 -93 17 -12 5 -75 15 -102 17 -4 0 -23 14 -43 31 -28 25
-40 48 -61 115 -14 46 -29 84 -35 84 -5 0 -9 -4 -9 -8 0 -9 -53 -27 -165 -58
-33 -9 -85 -25 -115 -36 -30 -11 -100 -33 -155 -49 -172 -48 -267 -76 -345
-102 -41 -13 -127 -41 -191 -61 l-116 -37 -30 28 c-16 15 -32 33 -34 40 -2 7
-28 37 -58 68 -45 47 -58 55 -80 50 -32 -6 -100 17 -117 40 -8 10 -20 15 -29
11 -11 -4 -15 -2 -13 6 3 9 32 14 85 16 64 2 84 7 98 22 27 30 12 53 -30 48
-19 -2 -35 0 -35 4 0 5 -23 6 -52 2 -35 -5 -49 -4 -44 4 3 6 1 14 -4 17 -7 4
-8 19 -5 36 5 22 3 29 -9 29 -9 0 -16 3 -16 8 0 4 -18 29 -40 56 -22 26 -40
54 -40 62 0 8 -13 33 -30 56 -36 49 -36 54 -9 68 28 16 61 -13 57 -49 -2 -20
4 -29 25 -39 15 -7 27 -17 27 -23 0 -5 7 -9 16 -9 18 0 115 -30 129 -40 6 -4
44 -11 86 -14 64 -6 94 -3 210 24 l134 31 20 -25 c20 -23 25 -24 220 -32 301
-13 298 -14 387 30 54 26 82 46 92 66 16 33 12 40 -24 40 -14 0 -32 6 -38 12
-9 9 -15 10 -20 2 -4 -7 -16 -13 -27 -15 -14 -3 -21 -13 -23 -36 -3 -35 -35
-54 -55 -34 -6 6 -22 11 -36 11 l-26 1 30 24 c22 18 29 32 27 50 -4 29 5 34
128 65 184 47 175 43 176 76 1 17 -10 114 -23 215 -13 101 -25 202 -26 223 -1
25 -7 41 -17 43 -40 11 -42 13 -33 26 6 6 16 40 23 75 7 34 17 62 21 62 5 0 9
5 9 10 0 7 -285 10 -835 10 -459 0 -835 -3 -835 -8z m-160 -352 c11 -7 4 -10
-25 -9 -31 0 -36 2 -20 9 26 11 28 11 45 0z m5 -74 c17 -12 18 -17 7 -37 -7
-13 -16 -44 -20 -67 -4 -24 -11 -42 -17 -40 -5 1 -9 9 -9 16 1 7 -11 16 -27
19 -32 6 -36 15 -14 33 8 7 15 23 15 35 0 54 26 70 65 41z m2970 -26 c-3 -5
-11 -10 -16 -10 -6 0 -7 5 -4 10 3 6 11 10 16 10 6 0 7 -4 4 -10z m52 -192
c-3 -7 -5 -2 -5 12 0 14 2 19 5 13 2 -7 2 -19 0 -25z m76 -187 c-3 -12 -10
-17 -20 -14 -9 4 -16 -2 -20 -16 -3 -12 -16 -24 -29 -27 -13 -3 -24 -11 -24
-18 0 -6 -5 -3 -11 6 -7 13 -4 29 11 60 11 23 20 49 20 59 0 25 24 41 38 27 9
-9 12 -7 13 8 1 10 7 0 14 -23 7 -23 11 -51 8 -62z m-1618 69 c4 -6 -13 -10
-44 -10 -27 0 -53 -4 -56 -10 -3 -5 -17 -10 -31 -10 -13 0 -24 5 -24 10 0 6
13 10 29 10 17 0 33 5 36 10 3 6 24 10 45 10 21 0 42 -4 45 -10z m-340 -90 c3
-6 -1 -13 -10 -16 -19 -8 -30 0 -20 15 8 14 22 14 30 1z m303 -7 c-2 -12 -14
-19 -36 -21 -39 -4 -42 13 -4 26 39 15 44 14 40 -5z m-1801 -17 c-8 -9 -17
-21 -20 -28 -2 -7 -8 -10 -12 -5 -5 4 2 18 15 32 13 14 25 23 28 20 2 -2 -3
-11 -11 -19z m3397 -61 c-21 -16 -54 -20 -54 -6 0 12 18 19 49 20 24 1 24 1 5
-14z m-3148 -22 c-10 -10 -19 5 -10 18 6 11 8 11 12 0 2 -7 1 -15 -2 -18z
m3747 20 c-7 -2 -19 -2 -25 0 -7 3 -2 5 12 5 14 0 19 -2 13 -5z m-936 -35 c-3
-8 -6 -5 -6 6 -1 11 2 17 5 13 3 -3 4 -12 1 -19z m-2788 -57 c-6 -38 -16 -62
-34 -78 -26 -25 -61 -83 -49 -83 4 0 -1 -9 -10 -19 -17 -19 -70 -36 -60 -19 3
5 1 15 -5 22 -9 10 -3 24 24 56 20 24 34 49 31 57 -7 16 14 53 30 53 5 0 25
16 42 36 18 20 34 35 36 33 2 -2 0 -29 -5 -58z m-259 46 c0 -2 -9 -14 -20 -27
-11 -13 -20 -19 -20 -15 0 5 7 17 17 27 15 17 23 22 23 15z m3630 -104 c0 -38
-14 -41 -48 -13 -28 23 -34 79 -12 105 12 15 16 13 37 -22 12 -21 23 -53 23
-70z m-3709 -7 c1 -25 -3 -52 -9 -58 -21 -21 -25 1 -13 58 7 30 15 54 17 52 2
-3 5 -26 5 -52z m374 -3 c-21 -30 -25 -33 -20 -13 10 36 38 77 42 63 3 -7 -8
-29 -22 -50z m3078 34 c23 -9 23 -72 -2 -120 -14 -28 -17 -46 -11 -66 7 -26 6
-28 -16 -28 -48 0 -70 106 -38 183 17 40 35 59 44 45 3 -4 13 -10 23 -14z
m-336 -34 c-3 -10 -5 -4 -5 12 0 17 2 24 5 18 2 -7 2 -21 0 -30z m832 -39 c14
-12 -19 -1 -35 12 -18 14 -18 14 6 3 14 -6 27 -13 29 -15z m-832 -31 c-3 -10
-5 -2 -5 17 0 19 2 27 5 18 2 -10 2 -26 0 -35z m0 -110 c-2 -16 -4 -3 -4 27 0
30 2 43 4 28 2 -16 2 -40 0 -55z m593 72 c0 -11 -56 -28 -85 -25 -60 4 -61 19
-2 18 32 0 61 3 64 6 8 7 23 8 23 1z m1220 -76 c0 -17 -6 -20 -37 -17 -47 4
-54 24 -11 36 39 11 48 7 48 -19z m-1430 -54 c0 -8 8 -15 18 -15 10 0 33 -13
52 -29 35 -29 35 -29 8 -24 -15 3 -33 11 -39 19 -6 8 -17 14 -25 14 -7 0 -18
9 -24 19 -13 25 -13 31 0 31 6 0 10 -7 10 -15z m1036 -7 c-3 -13 -6 -31 -6
-40 0 -15 -9 -18 -45 -18 -36 0 -45 3 -45 18 0 35 29 62 67 62 32 0 35 -2 29
-22z m209 -1 c28 -16 42 -31 46 -52 9 -41 10 -219 2 -295 l-6 -62 -39 5 c-32
4 -38 2 -38 -14 0 -16 -5 -18 -47 -13 -27 4 -52 10 -57 15 -5 5 -15 4 -23 -2
-10 -9 -13 -6 -13 14 0 14 -4 28 -9 32 -11 6 -41 104 -41 134 0 11 9 25 19 31
11 5 26 16 33 24 8 7 33 23 55 35 54 27 73 47 73 77 0 29 -23 41 -53 26 -38
-19 -67 -24 -67 -12 0 6 7 26 14 45 14 33 18 35 63 35 31 0 62 -8 88 -23z
m-2009 -57 c0 -23 -17 -29 -91 -33 -63 -3 -65 13 -5 35 65 24 96 23 96 -2z
m-1461 -136 c16 -12 17 -16 5 -40 -14 -24 -14 -25 -22 -5 -10 28 -36 27 -62
-2 -12 -13 -27 -22 -33 -20 -6 2 -17 -5 -23 -16 -6 -12 -20 -21 -30 -21 -21 0
-27 15 -10 25 6 3 10 15 10 26 0 10 -4 19 -10 19 -5 0 -10 7 -10 15 0 20 16
19 24 -1 5 -13 9 -14 21 -4 8 6 19 9 24 5 6 -3 16 3 22 14 15 23 65 26 94 5z
m2395 -31 c0 -27 -5 -86 -10 -133 -14 -113 -22 -571 -10 -589 13 -22 -7 -51
-35 -51 -14 0 -25 -4 -25 -10 0 -5 -12 -10 -27 -11 -26 0 -27 -1 -6 -9 12 -5
25 -15 30 -22 4 -7 16 -17 26 -23 45 -25 -14 -39 -90 -23 -36 8 -42 -2 -18
-26 24 -23 18 -28 -15 -11 -16 8 -38 15 -50 15 -23 0 -101 46 -113 66 -4 8
-13 14 -18 14 -6 0 -7 -5 -3 -12 4 -7 3 -8 -5 -4 -6 4 -9 12 -5 17 3 6 -10 23
-29 40 -56 48 -90 136 -94 249 -5 109 10 152 62 180 16 9 32 27 36 41 7 23 7
23 8 2 2 -37 19 -26 32 20 7 26 9 72 5 122 -7 87 -6 88 27 24 21 -41 25 -44
68 -47 32 -2 51 2 62 13 9 8 20 15 26 15 6 0 11 8 11 18 0 19 137 182 152 182
5 0 8 -21 8 -47z m-2710 33 c0 -11 -19 -15 -25 -6 -3 5 1 10 9 10 9 0 16 -2
16 -4z m54 -12 c8 -21 8 -24 -5 -24 -5 0 -7 5 -4 10 3 6 -1 10 -10 10 -9 0
-13 5 -10 10 9 15 22 12 29 -6z m3426 -64 c0 -5 -4 -10 -9 -10 -5 0 -16 -3
-25 -6 -9 -3 -16 -1 -16 4 0 9 16 17 43 21 4 0 7 -3 7 -9z m-3467 -30 c3 -12
0 -20 -7 -20 -18 0 -25 10 -19 26 7 20 20 17 26 -6z m3471 -52 c-2 -38 -14
-57 -31 -51 -13 5 -15 1 -9 -21 8 -31 -2 -55 -15 -35 -4 7 -11 10 -15 6 -13
-12 17 -33 84 -57 49 -18 71 -33 103 -72 l42 -49 -8 -92 c-12 -165 -70 -425
-132 -598 -33 -93 -37 -99 -63 -99 -70 0 -75 23 -29 120 19 39 30 79 29 100
-3 85 -6 109 -17 121 -6 8 -13 30 -16 49 -3 19 -10 64 -15 100 -21 129 -24
316 -7 398 11 52 14 97 9 139 l-6 63 49 0 c44 0 49 -2 47 -22z m-3470 -4 c4
-9 3 -20 0 -23 -4 -3 -9 0 -11 7 -4 10 -8 10 -19 1 -17 -14 -19 2 -2 19 16 16
25 15 32 -4z m231 -72 c-3 -17 -17 -42 -31 -57 -13 -14 -24 -34 -24 -43 0 -9
-4 -23 -9 -31 -6 -8 -9 20 -9 74 l1 89 24 -28 23 -28 11 32 c14 38 23 33 14
-8z m-240 10 c-3 -3 -11 0 -18 7 -9 10 -8 11 6 5 10 -3 15 -9 12 -12z m-26
-53 c-27 -27 -32 -23 -13 12 11 22 18 28 24 19 4 -7 0 -20 -11 -31z m3826 31
c3 -5 -3 -10 -14 -10 -11 0 -23 5 -26 10 -3 6 3 10 14 10 11 0 23 -4 26 -10z
m-4885 -20 c0 -5 -5 -10 -12 -10 -6 0 -19 -6 -27 -14 -21 -18 -91 -10 -91 11
0 11 9 13 44 8 26 -4 52 -3 63 4 23 13 23 13 23 1z m3220 -14 c0 -8 -4 -18
-10 -21 -5 -3 -10 3 -10 14 0 12 5 21 10 21 6 0 10 -6 10 -14z m-2160 -46 c0
-5 -7 -10 -15 -10 -8 0 -15 5 -15 10 0 6 7 10 15 10 8 0 15 -4 15 -10z m2148
-42 l-1 -31 -18 21 c-20 26 -15 69 7 52 7 -6 12 -25 12 -42z m102 2 c0 -5 -4
-10 -10 -10 -5 0 -10 5 -10 10 0 6 5 10 10 10 6 0 10 -4 10 -10z m-2266 -15
c-4 -8 -10 -15 -15 -15 -4 0 -6 7 -3 15 4 8 10 15 15 15 4 0 6 -7 3 -15z
m-1564 -28 c0 -21 -46 -59 -65 -55 -15 2 -13 8 13 36 32 34 52 41 52 19z
m3756 -34 c-11 -11 -17 4 -9 23 7 18 8 18 11 1 2 -10 1 -21 -2 -24z m-3880
-28 c-7 -18 -26 -20 -26 -2 0 18 24 41 28 27 2 -6 1 -17 -2 -25z m1754 13 c0
-6 -10 -22 -22 -35 -19 -20 -20 -23 -4 -17 16 6 17 5 5 -15 -18 -28 -26 -27
-32 7 -3 17 0 30 9 35 8 4 14 15 14 22 0 8 7 15 15 15 8 0 15 -5 15 -12z
m2047 -65 c-3 -10 -5 -2 -5 17 0 19 2 27 5 18 2 -10 2 -26 0 -35z m70 -25 c-2
-13 -4 -5 -4 17 -1 22 1 32 4 23 2 -10 2 -28 0 -40z m-1992 -138 l30 -21 -35
3 c-24 2 -36 9 -38 21 -4 22 6 22 43 -3z m-348 -97 c-3 -10 -5 -4 -5 12 0 17
2 24 5 18 2 -7 2 -21 0 -30z m2987 -138 c3 -8 1 -15 -4 -15 -6 0 -10 7 -10 15
0 8 2 15 4 15 2 0 6 -7 10 -15z m33 -100 c6 -14 9 -25 6 -25 -9 0 -33 29 -33
39 0 19 15 11 27 -14z m-741 -10 c33 -25 33 -26 14 -45 -15 -15 -19 -30 -16
-62 4 -49 12 -55 120 -88 71 -22 110 -21 168 2 24 9 30 7 48 -13 10 -13 19
-20 20 -15 0 5 9 1 20 -9 11 -10 17 -22 14 -27 -3 -5 -14 -2 -24 7 -19 17 -60
13 -60 -6 0 -5 -4 -9 -10 -9 -5 0 -10 7 -10 15 0 8 -3 15 -7 15 -5 0 -18 3
-31 6 -18 5 -21 3 -16 -10 3 -9 16 -16 28 -17 19 -1 18 -2 -4 -8 -14 -4 -24
-13 -22 -19 1 -7 -5 -12 -13 -12 -9 0 -15 -9 -15 -25 0 -14 5 -25 10 -25 16 0
12 -36 -5 -50 -10 -8 -13 -21 -9 -33 4 -12 1 -23 -7 -28 -11 -7 -9 -9 6 -9 18
-1 18 -2 -2 -10 -32 -13 -29 -43 6 -57 23 -8 32 -8 44 5 10 9 22 12 34 7 15
-6 15 -8 3 -13 -8 -3 -17 -8 -20 -12 -3 -4 -29 -9 -59 -12 -53 -5 -53 -5 -67
29 -12 28 -19 33 -36 27 -18 -5 -20 -3 -13 12 4 11 10 27 13 37 3 14 12 17 29
14 22 -4 23 -2 21 39 -2 24 -6 44 -10 44 -5 0 -8 4 -8 10 0 5 8 7 18 3 12 -4
14 -3 6 6 -6 6 -89 34 -185 62 -96 28 -180 52 -186 55 -7 2 -13 19 -13 39 0
30 3 35 24 35 13 0 30 -9 37 -20 8 -10 26 -22 41 -26 26 -6 27 -5 21 32 -3 21
-17 53 -30 72 -37 55 -29 92 22 105 47 11 80 6 111 -18z m1712 -7 c5 -25 -33
-24 -60 2 l-21 19 39 -2 c28 -1 40 -7 42 -19z m-868 -3 c-9 -10 -9 -15 -1 -15
6 0 11 -4 11 -10 0 -5 -7 -10 -15 -10 -8 0 -15 -3 -15 -7 0 -5 -4 -15 -10 -23
-7 -12 -12 -11 -31 5 -12 11 -19 13 -14 6 12 -21 13 -64 2 -78 -15 -20 -29
-15 -22 7 5 15 0 21 -20 26 -32 8 -31 43 2 60 13 6 21 13 18 15 -2 3 7 6 21 7
14 1 35 9 47 17 28 19 43 19 27 0z m-176 -59 c-3 -9 -10 -16 -15 -16 -14 0
-11 28 4 33 16 6 19 3 11 -17z m-825 -31 c0 -5 -4 -3 -9 5 -5 8 -9 22 -9 30 0
16 17 -16 18 -35z m1291 15 c0 -5 -4 -10 -9 -10 -6 0 -13 5 -16 10 -3 6 1 10
9 10 9 0 16 -4 16 -10z m-447 -7 c4 -3 2 -12 -4 -20 -9 -9 -8 -17 1 -28 17
-21 4 -54 -20 -48 -11 3 -25 11 -31 19 -6 8 -16 14 -21 14 -7 0 -6 -5 1 -13 8
-10 4 -19 -19 -36 -17 -12 -30 -17 -30 -12 0 17 -53 48 -58 33 -4 -14 -32 -16
-32 -3 0 6 5 13 11 16 6 4 8 13 5 21 -6 16 -2 16 70 14 43 -1 56 3 77 24 27
27 39 31 50 19z m-373 -68 c-7 -9 -15 -13 -17 -11 -7 7 7 26 19 26 6 0 6 -6
-2 -15z m110 -19 c0 -7 10 -12 23 -12 17 1 23 -5 25 -28 2 -16 -2 -34 -9 -40
-8 -8 -10 -8 -6 0 8 14 -28 48 -42 39 -7 -4 -11 7 -11 30 0 22 4 34 10 30 6
-3 10 -12 10 -19z m603 -43 c-7 -2 -21 -2 -30 0 -10 3 -4 5 12 5 17 0 24 -2
18 -5z m-193 -33 c0 -8 -52 -21 -58 -15 -2 2 -1 13 3 24 5 17 9 19 31 9 13 -6
24 -14 24 -18z m-179 -3 c-10 -9 -11 -8 -5 6 3 10 9 15 12 12 3 -3 0 -11 -7
-18z m342 -56 c-9 -13 -21 18 -16 39 7 25 7 25 13 -5 4 -16 5 -32 3 -34z m82
49 c-3 -5 -12 -10 -20 -10 -8 0 -17 5 -20 10 -4 6 5 10 20 10 15 0 24 -4 20
-10z m-778 -32 c-3 -8 -6 -5 -6 6 -1 11 2 17 5 13 3 -3 4 -12 1 -19z m90 10
c4 -7 17 -13 27 -13 11 0 21 -6 24 -13 3 -9 -3 -11 -20 -7 -19 5 -27 1 -36
-17 -7 -15 -11 -17 -11 -7 -1 8 4 20 11 27 9 9 7 12 -9 12 -25 0 -39 16 -21
23 21 9 27 8 35 -5z m199 -67 c-4 -6 -13 -11 -21 -11 -7 0 -15 -7 -19 -15 -3
-8 -10 -15 -16 -15 -5 0 -10 7 -10 15 0 8 5 15 11 15 6 0 9 6 6 14 -4 10 2 16
16 18 26 5 42 -6 33 -21z m-316 10 c0 -13 -26 -32 -33 -24 -8 7 11 33 24 33 5
0 9 -4 9 -9z m50 -96 c0 -60 -11 -69 -36 -29 -13 19 -14 28 -5 37 6 6 11 19
11 29 0 10 7 18 15 18 12 0 15 -13 15 -55z m194 33 c8 -32 7 -38 -5 -38 -6 0
-9 7 -6 15 4 8 2 17 -3 20 -12 8 -13 25 -1 25 5 0 11 -10 15 -22z m-249 -17
c-3 -6 -11 -11 -17 -11 -6 0 -6 6 2 15 14 17 26 13 15 -4z m205 4 c0 -10 -10
-15 -30 -15 -16 0 -30 4 -30 9 0 8 10 12 53 20 4 0 7 -6 7 -14z m-2085 -15 c3
-6 -1 -7 -9 -4 -18 7 -21 14 -7 14 6 0 13 -4 16 -10z m2212 -4 c-3 -7 -2 -17
2 -22 5 -5 -7 -28 -25 -52 l-34 -43 -10 26 c-16 42 -12 62 18 84 31 24 57 27
49 7z m-1642 -26 c-3 -5 -11 -10 -16 -10 -6 0 -7 5 -4 10 3 6 11 10 16 10 6 0
7 -4 4 -10z m1405 -55 c0 -8 -6 -15 -14 -15 -17 0 -28 14 -19 24 12 12 33 6
33 -9z m-1742 -12 c9 -3 21 -7 26 -7 5 -1 11 -6 13 -12 2 -7 -15 -5 -46 5 -27
9 -47 19 -45 23 5 7 15 5 52 -9z m2322 -19 c0 -2 -7 -4 -15 -4 -8 0 -15 4 -15
10 0 5 7 7 15 4 8 -4 15 -8 15 -10z m-2243 -20 c-9 -9 -28 6 -21 18 4 6 10 6
17 -1 6 -6 8 -13 4 -17z m1793 -5 c0 -14 -16 -11 -29 5 -10 12 -8 13 8 9 12
-3 21 -9 21 -14z m-1830 -12 c14 -5 20 -11 13 -14 -7 -2 -21 0 -32 6 -11 6
-29 11 -40 11 -12 0 -21 5 -21 10 0 11 34 5 80 -13z m242 -33 c32 -11 58 -22
58 -26 0 -11 -14 -10 -47 4 -33 13 -30 12 -65 22 -16 5 -28 13 -28 18 0 5 6 8
13 5 6 -3 38 -13 69 -23z m2338 -14 c73 -24 52 -24 -30 0 -36 10 -56 19 -45
19 11 0 45 -8 75 -19z m-2635 0 c3 -6 -1 -7 -9 -4 -18 7 -21 14 -7 14 6 0 13
-4 16 -10z m50 -10 c13 -6 15 -9 5 -9 -8 0 -22 4 -30 9 -18 12 -2 12 25 0z
m1605 -4 c0 -3 -4 -8 -10 -11 -5 -3 -10 -1 -10 4 0 6 5 11 10 11 6 0 10 -2 10
-4z m-1196 -23 c4 -5 11 -8 14 -9 26 -3 62 -18 62 -25 0 -12 -17 -11 -25 1 -3
5 -12 7 -19 4 -8 -3 -17 -1 -21 5 -3 6 -15 11 -26 11 -10 0 -19 5 -19 10 0 12
23 13 34 3z m-388 -40 c-6 -6 -96 21 -96 28 0 4 22 0 50 -9 27 -9 48 -17 46
-19z m508 28 c3 -4 -6 -6 -19 -3 -14 2 -25 6 -25 8 0 8 39 4 44 -5z m-277 -7
c-3 -3 -12 -4 -19 -1 -8 3 -5 6 6 6 11 1 17 -2 13 -5z m343 -14 c0 -5 -5 -10
-11 -10 -5 0 -7 5 -4 10 3 6 8 10 11 10 2 0 4 -4 4 -10z m-370 -10 c13 -9 13
-10 0 -10 -8 0 -22 5 -30 10 -13 9 -13 10 0 10 8 0 22 -5 30 -10z m327 -5 c19
-8 41 -15 48 -15 19 0 88 -30 82 -36 -6 -6 -168 45 -181 57 -15 14 10 11 51
-6z m-487 -5 c8 -5 11 -10 5 -10 -5 0 -17 5 -25 10 -8 5 -10 10 -5 10 6 0 17
-5 25 -10z m1397 -10 c2 0 3 -4 3 -9 0 -4 -18 -3 -39 2 -22 6 -38 14 -35 18 2
4 19 3 37 -2 17 -5 33 -9 34 -9z m-1497 -15 c19 -7 28 -14 20 -14 -8 0 -28 6
-45 14 -39 17 -21 18 25 0z m1425 -55 c4 -12 12 -16 25 -13 27 7 25 -6 -2 -16
-17 -6 -26 -4 -35 8 -11 14 -12 13 -10 -6 1 -12 -2 -23 -8 -25 -11 -3 -19 56
-11 79 5 12 9 13 21 3 8 -6 17 -20 20 -30z m505 21 c0 -31 -25 -48 -59 -43
-26 4 -29 7 -19 19 9 11 49 34 76 42 1 1 2 -8 2 -18z m1222 -3 c-7 -7 -12 -8
-12 -2 0 14 12 26 19 19 2 -3 -1 -11 -7 -17z m-3158 -18 c10 0 17 -3 13 -6
-10 -10 -57 5 -57 18 0 9 3 9 12 0 7 -7 21 -12 32 -12z m766 5 c0 -8 -4 -15
-10 -15 -5 0 -10 7 -10 15 0 8 5 15 10 15 6 0 10 -7 10 -15z m915 5 c3 -5 -1
-10 -9 -10 -9 0 -16 5 -16 10 0 6 4 10 9 10 6 0 13 -4 16 -10z m-82 -28 c-6
-24 -23 -30 -23 -9 0 13 21 39 26 34 2 -2 1 -13 -3 -25z m157 8 c0 -5 -4 -10
-10 -10 -5 0 -10 5 -10 10 0 6 5 10 10 10 6 0 10 -4 10 -10z m130 -60 c-13
-30 -30 -41 -30 -17 0 16 30 60 37 53 3 -3 0 -19 -7 -36z m-1865 9 c13 -6 5
-6 -20 -3 -22 4 -44 11 -50 16 -11 10 34 2 70 -13z m1321 -6 c-10 -10 -19 5
-10 18 6 11 8 11 12 0 2 -7 1 -15 -2 -18z m-586 -18 c0 -8 -4 -15 -10 -15 -5
0 -10 7 -10 15 0 8 5 15 10 15 6 0 10 -7 10 -15z m-764 -26 c3 -5 1 -9 -5 -9
-17 0 -41 12 -41 20 0 10 38 1 46 -11z m1374 1 c0 -5 -4 -10 -10 -10 -5 0 -10
5 -10 10 0 6 5 10 10 10 6 0 10 -4 10 -10z m-1384 -58 c-10 -2 -22 0 -28 6 -6
6 0 7 19 4 21 -5 23 -7 9 -10z m774 -7 c0 -8 -4 -15 -9 -15 -5 0 -11 7 -15 15
-3 9 0 15 9 15 8 0 15 -7 15 -15z m-720 -5 c8 -5 11 -10 5 -10 -5 0 -17 5 -25
10 -8 5 -10 10 -5 10 6 0 17 -5 25 -10z m2935 0 c3 -5 2 -10 -4 -10 -5 0 -13
5 -16 10 -3 6 -2 10 4 10 5 0 13 -4 16 -10z m-1135 -4 c0 -3 -4 -8 -10 -11 -5
-3 -10 -1 -10 4 0 6 5 11 10 11 6 0 10 -2 10 -4z m1540 -29 c0 -17 -6 -23 -25
-25 -31 -2 -31 4 -2 29 28 23 27 23 27 -4z m-3400 -3 c0 -2 -7 -4 -15 -4 -8 0
-15 4 -15 10 0 5 7 7 15 4 8 -4 15 -8 15 -10z m1725 -4 c-3 -5 -11 -10 -16
-10 -6 0 -7 5 -4 10 3 6 11 10 16 10 6 0 7 -4 4 -10z m-1680 -10 c13 -6 15 -9
5 -9 -8 0 -22 4 -30 9 -18 12 -2 12 25 0z m3213 -34 c17 -4 32 -12 32 -16 0
-5 6 -8 13 -6 42 13 77 15 77 3 0 -23 -22 -38 -37 -25 -11 9 -17 6 -29 -11
-17 -23 -34 -20 -34 8 0 20 -62 53 -85 45 -18 -7 -20 7 -3 24 10 10 15 10 23
-1 6 -8 25 -18 43 -21z m-1778 20 c0 -3 -4 -8 -10 -11 -5 -3 -10 -1 -10 4 0 6
5 11 10 11 6 0 10 -2 10 -4z m210 -28 c0 -6 -7 -5 -15 2 -8 7 -15 17 -15 22 0
6 7 5 15 -2 8 -7 15 -17 15 -22z m1726 -10 c-19 -26 -20 -20 -5 19 6 15 13 22
16 16 2 -7 -3 -23 -11 -35z m-2646 10 c0 -11 -5 -18 -12 -16 -19 7 -21 35 -3
35 8 0 15 -9 15 -19z m2590 12 c0 -5 -4 -10 -10 -10 -5 0 -10 5 -10 10 0 6 5
10 10 10 6 0 10 -4 10 -10z m-1649 -33 c-10 -9 -11 -8 -5 6 3 10 9 15 12 12 3
-3 0 -11 -7 -18z m-64 7 c-3 -3 -12 -4 -19 -1 -8 3 -5 6 6 6 11 1 17 -2 13 -5z
m-1657 -34 c13 -8 13 -10 -2 -10 -9 0 -20 5 -23 10 -8 13 5 13 25 0z m777 4
c-3 -3 -12 -4 -19 -1 -8 3 -5 6 6 6 11 1 17 -2 13 -5z m1070 0 c-3 -3 -12 -4
-19 -1 -8 3 -5 6 6 6 11 1 17 -2 13 -5z m1554 -64 c-9 -23 -10 -23 -10 11 -1
20 2 39 7 43 11 12 14 -27 3 -54z m-3613 17 c6 -5 12 -6 12 -2 0 4 6 3 13 -2
6 -6 29 -16 50 -23 22 -7 50 -18 64 -25 13 -7 54 -21 89 -31 35 -10 64 -24 64
-31 0 -7 8 -14 18 -14 9 -1 22 -2 27 -4 6 -1 18 -3 28 -3 9 -1 17 -6 17 -11 0
-4 -14 -7 -32 -5 -37 5 -88 25 -88 36 0 4 -7 5 -15 2 -8 -4 -15 -1 -15 6 0 6
-4 9 -9 5 -5 -3 -31 4 -58 16 -26 12 -57 25 -68 29 -11 5 -41 17 -67 29 -26
12 -55 21 -63 21 -8 0 -15 7 -15 15 0 15 23 11 48 -8z m985 7 c3 -3 3 -12 0
-19 -6 -17 -33 -8 -33 11 0 14 21 19 33 8z m1044 -46 c-3 -8 -6 -5 -6 6 -1 11
2 17 5 13 3 -3 4 -12 1 -19z m1540 -24 c-12 -12 -25 7 -19 28 l5 22 10 -22 c6
-12 7 -25 4 -28z m-134 -53 c-15 -28 -34 -51 -40 -51 -13 0 2 29 42 82 31 40
30 25 -2 -31z m-2463 29 c11 -7 12 -12 3 -21 -8 -8 -14 -6 -22 10 -12 22 -5
27 19 11z m1040 -15 c0 -8 -4 -15 -10 -15 -5 0 -7 7 -4 15 4 8 8 15 10 15 2 0
4 -7 4 -15z m-1590 -56 c0 -5 4 -8 9 -5 5 3 22 -1 37 -9 16 -8 35 -15 42 -15
6 0 12 -5 12 -10 0 -6 6 -10 13 -9 6 1 25 -3 40 -9 16 -7 35 -12 43 -12 8 0
14 -7 14 -15 0 -21 -7 -19 -97 16 -118 46 -144 59 -138 70 8 12 25 12 25 -2z
m550 -44 c0 -8 -6 -15 -14 -15 -8 0 -16 7 -20 15 -4 10 1 15 14 15 11 0 20 -7
20 -15z m-1100 1 c0 -11 -19 -15 -25 -6 -3 5 1 10 9 10 9 0 16 -2 16 -4z
m2050 -46 c-6 -11 -13 -20 -16 -20 -2 0 0 9 6 20 6 11 13 20 16 20 2 0 0 -9
-6 -20z m-1243 -26 c-9 -9 -28 6 -21 18 4 6 10 6 17 -1 6 -6 8 -13 4 -17z m73
-14 c0 -5 -6 -10 -14 -10 -8 0 -18 5 -21 10 -3 6 3 10 14 10 12 0 21 -4 21
-10z m120 -57 c0 -17 -4 -17 -53 8 -51 26 -50 25 -43 37 7 12 95 -29 96 -45z
m-422 -43 c-12 -16 -30 -32 -40 -36 -10 -3 -23 -14 -28 -25 -12 -22 -30 -26
-30 -6 0 17 86 97 105 97 13 0 11 -6 -7 -30z m-563 -74 c-11 -8 -23 -12 -28
-9 -13 8 3 23 26 23 20 0 20 0 2 -14z m699 -24 c-16 -8 -31 -18 -34 -22 -7
-11 -71 -42 -76 -37 -5 4 82 69 106 78 29 12 33 -4 4 -19z m1827 -473 c126
-58 158 -75 159 -81 0 -13 -94 4 -140 26 -53 24 -80 46 -80 63 0 18 9 16 61
-8z m-141 -49 c0 -5 -4 -10 -10 -10 -5 0 -10 5 -10 10 0 6 5 10 10 10 6 0 10
-4 10 -10z"/>
<path d="M6035 3060 c3 -5 11 -10 16 -10 6 0 7 5 4 10 -3 6 -11 10 -16 10 -6
0 -7 -4 -4 -10z"/>
<path d="M6088 3053 c7 -3 16 -2 19 1 4 3 -2 6 -13 5 -11 0 -14 -3 -6 -6z"/>
<path d="M5820 3028 c0 -19 2 -20 10 -8 13 19 13 30 0 30 -5 0 -10 -10 -10
-22z"/>
<path d="M4758 2003 c7 -3 16 -2 19 1 4 3 -2 6 -13 5 -11 0 -14 -3 -6 -6z"/>
<path d="M4633 1967 c4 -10 -2 -17 -16 -21 -27 -7 -13 -21 29 -29 26 -5 33 -2
44 19 16 28 15 30 -29 39 -28 6 -33 5 -28 -8z"/>
<path d="M4385 4671 c-3 -5 -1 -12 5 -16 5 -3 10 1 10 9 0 18 -6 21 -15 7z"/>
<path d="M325 4659 c-83 -8 -198 -22 -288 -35 l-37 -6 2 -536 3 -536 224 -56
c232 -58 244 -63 279 -126 7 -13 15 -13 54 -4 36 9 60 8 123 -5 43 -8 80 -13
83 -10 3 3 0 5 -6 5 -7 0 -12 7 -12 15 0 9 -9 34 -21 56 -23 47 -48 137 -90
334 -39 184 -58 266 -69 290 -4 11 -16 40 -25 64 -9 25 -26 58 -38 75 -17 24
-22 48 -25 125 -4 105 -5 194 -2 285 2 62 -7 77 -45 74 -11 0 -60 -4 -110 -9z"/>
<path d="M4346 4621 c-8 -12 3 -41 15 -41 11 0 30 36 22 44 -9 9 -31 7 -37 -3z"/>
<path d="M4415 4564 c-19 -15 -19 -16 25 -54 25 -22 48 -40 53 -40 10 0 9 32
-4 69 -8 23 -14 29 -20 20 -6 -11 -9 -10 -15 4 -8 21 -13 21 -39 1z"/>
<path d="M6447 4493 c-13 -12 -7 -43 7 -43 19 0 28 14 20 34 -7 17 -16 20 -27
9z"/>
<path d="M5150 4470 c0 -5 7 -10 15 -10 8 0 15 5 15 10 0 6 -7 10 -15 10 -8 0
-15 -4 -15 -10z"/>
<path d="M5130 4442 c0 -15 -6 -22 -19 -22 -11 0 -21 -6 -24 -12 -6 -20 14
-57 35 -64 10 -3 26 -16 34 -30 18 -27 47 -34 37 -8 -3 8 4 25 18 40 32 34 18
78 -26 82 -17 2 -36 11 -42 20 -12 14 -13 13 -13 -6z"/>
<path d="M1685 4441 c-7 -12 12 -24 25 -16 11 7 4 25 -10 25 -5 0 -11 -4 -15
-9z"/>
<path d="M6505 4419 c-7 -33 5 -56 24 -45 6 4 11 23 11 42 0 44 -26 46 -35 3z"/>
<path d="M4570 4391 c-10 -25 -9 -33 6 -56 12 -19 19 -23 23 -14 2 8 10 18 17
22 19 11 18 27 -1 27 -9 0 -15 9 -15 25 0 34 -15 32 -30 -4z"/>
<path d="M5400 4365 c0 -8 5 -15 10 -15 6 0 10 7 10 15 0 8 -4 15 -10 15 -5 0
-10 -7 -10 -15z"/>
<path d="M4103 4352 c25 -27 21 -32 -20 -32 -30 -1 -34 -3 -21 -10 9 -6 31 -9
50 -8 18 1 41 -2 51 -6 29 -14 20 20 -14 48 -37 31 -72 37 -46 8z"/>
<path d="M4252 4358 c3 -7 15 -14 29 -16 23 -2 23 -2 5 13 -24 18 -39 20 -34
3z"/>
<path d="M5383 4325 c-11 -8 -49 -15 -84 -17 -36 -2 -63 -7 -62 -13 3 -12 152
-28 458 -49 263 -18 297 -19 275 -7 -8 4 -69 14 -135 20 -360 38 -386 42 -416
67 -13 11 -19 11 -36 -1z"/>
<path d="M6520 4311 c0 -6 5 -13 10 -16 6 -3 10 1 10 9 0 9 -4 16 -10 16 -5 0
-10 -4 -10 -9z"/>
<path d="M4430 4290 c0 -5 5 -10 10 -10 6 0 10 5 10 10 0 6 -4 10 -10 10 -5 0
-10 -4 -10 -10z"/>
<path d="M4303 4273 c-15 -5 -17 -29 -4 -37 14 -9 41 4 41 19 0 15 -19 24 -37
18z"/>
<path d="M6147 4223 c-13 -13 -7 -21 13 -16 11 3 20 9 20 14 0 10 -24 12 -33
2z"/>
<path d="M6193 4204 c-30 -15 -32 -19 -42 -102 -7 -48 -15 -104 -20 -124 -6
-26 -4 -38 4 -42 32 -12 104 -16 145 -8 45 9 45 9 15 17 -52 13 -56 21 -50 97
3 39 10 78 15 88 6 10 10 35 10 54 0 31 -3 36 -22 36 -13 0 -37 -7 -55 -16z"/>
<path d="M4227 4043 c-18 -5 -18 -5 0 -19 10 -7 36 -14 58 -14 34 -1 37 -3 17
-10 -32 -13 -35 -29 -23 -106 13 -86 33 -107 82 -88 47 19 79 69 79 123 0 35
-4 44 -21 48 -13 4 -18 11 -14 21 13 33 -45 58 -73 30 -9 -9 -12 -8 -12 5 0
13 -8 17 -37 16 -21 -1 -46 -3 -56 -6z"/>
<path d="M4371 3746 c-8 -10 -9 -16 -1 -21 5 -3 13 1 16 10 9 22 -1 29 -15 11z"/>
<path d="M4370 3699 c0 -5 5 -7 10 -4 6 3 10 8 10 11 0 2 -4 4 -10 4 -5 0 -10
-5 -10 -11z"/>
<path d="M4350 3665 c-8 -9 -8 -15 -2 -15 12 0 26 19 19 26 -2 2 -10 -2 -17
-11z"/>
<path d="M4270 3451 c0 -10 -4 -21 -10 -23 -6 -2 -6 -9 0 -18 5 -8 12 -12 15
-8 11 11 15 57 5 63 -5 3 -10 -3 -10 -14z"/>
<path d="M0 3382 l0 -68 35 4 c19 2 38 8 40 13 5 7 -62 119 -71 119 -2 0 -4
-31 -4 -68z"/>
<path d="M898 3293 c23 -5 31 -21 10 -20 -33 1 -48 -4 -48 -16 0 -7 -12 -18
-27 -24 -21 -8 -23 -11 -8 -11 43 2 56 -2 49 -14 -6 -10 -3 -9 8 0 9 7 32 12
50 10 l33 -3 -48 -33 c-48 -32 -123 -57 -132 -43 -2 4 -17 6 -34 3 -23 -3 -29
0 -28 14 1 11 -6 20 -17 22 -12 3 -16 0 -11 -8 4 -7 -5 -24 -21 -41 -15 -16
-26 -30 -23 -31 25 -16 68 -38 73 -38 3 0 6 11 6 24 0 29 16 36 69 29 28 -4
48 -1 65 11 14 9 38 16 53 16 15 1 46 8 68 16 22 8 59 16 83 18 81 5 74 36
-20 86 -46 25 -48 25 -48 0 0 -25 -13 -26 -36 -3 -16 17 -16 18 7 23 22 6 21
7 -10 13 -18 4 -45 6 -60 6 -23 -2 -24 -2 -3 -6z"/>
<path d="M2263 3286 c3 -8 -1 -17 -10 -20 -9 -4 -13 -9 -10 -12 3 -3 14 0 25
7 20 12 20 39 0 39 -6 0 -8 -6 -5 -14z"/>
<path d="M1307 3253 c-11 -10 -8 -41 3 -48 17 -10 38 14 33 35 -5 20 -23 26
-36 13z"/>
<path d="M529 3214 c-9 -11 -6 -14 20 -14 34 0 42 15 11 23 -10 3 -24 -1 -31
-9z"/>
<path d="M1595 3213 c-11 -3 -24 -12 -28 -20 -6 -10 -12 -11 -22 -3 -7 6 -41
10 -75 8 -53 -2 -61 -5 -57 -20 3 -10 -2 -22 -11 -28 -16 -9 -16 -9 0 -10 9 0
23 6 31 14 11 11 27 13 70 7 66 -9 89 -25 81 -56 -7 -27 18 -40 46 -25 10 5
39 7 64 4 25 -4 46 -4 46 -1 0 9 -62 109 -76 125 -13 12 -33 14 -69 5z m62
-69 c-3 -3 -12 -4 -19 -1 -8 3 -5 6 6 6 11 1 17 -2 13 -5z"/>
<path d="M1710 3213 c1 -9 80 -66 85 -61 2 2 5 16 7 32 3 28 1 29 -44 33 -27
2 -48 1 -48 -4z"/>
<path d="M600 3200 c0 -5 5 -10 11 -10 5 0 7 5 4 10 -3 6 -8 10 -11 10 -2 0
-4 -4 -4 -10z"/>
<path d="M1848 3198 c9 -9 15 -9 24 0 9 9 7 12 -12 12 -19 0 -21 -3 -12 -12z"/>
<path d="M58 3163 l-58 -15 0 -89 c0 -64 4 -89 13 -90 31 -3 66 4 115 22 29
10 63 17 75 14 15 -4 30 1 45 15 28 26 40 20 34 -20 -5 -32 -19 -38 -41 -17
-11 10 -14 9 -18 -1 -3 -7 -18 -19 -35 -28 -16 -8 -28 -20 -26 -26 6 -17 201
-79 212 -68 6 6 34 10 64 10 l54 0 -17 27 c-17 25 -17 27 1 40 10 7 34 13 55
13 20 0 42 6 48 14 18 22 -5 30 -31 12 -29 -21 -52 -21 -44 0 6 15 -15 45 -31
45 -20 -1 -83 21 -88 29 -4 6 -10 8 -15 5 -5 -3 -29 6 -54 20 -25 14 -52 25
-60 25 -9 0 -16 4 -16 9 0 7 -112 72 -121 70 -2 -1 -30 -8 -61 -16z"/>
<path d="M528 3173 c7 -3 16 -2 19 1 4 3 -2 6 -13 5 -11 0 -14 -3 -6 -6z"/>
<path d="M496 3155 c10 -8 35 -15 54 -15 33 -1 34 -2 16 -15 -17 -13 -18 -15
-2 -21 20 -8 46 12 46 37 0 23 -30 32 -63 20 -17 -7 -28 -7 -32 -1 -4 6 -14
10 -23 10 -13 0 -13 -2 4 -15z"/>
<path d="M795 3160 c-3 -5 -1 -10 4 -10 6 0 11 5 11 10 0 6 -2 10 -4 10 -3 0
-8 -4 -11 -10z"/>
<path d="M670 3046 c-9 -12 -8 -15 9 -13 12 1 21 7 21 14 0 17 -15 16 -30 -1z"/>
<path d="M595 3040 c3 -5 8 -10 11 -10 2 0 4 5 4 10 0 6 -5 10 -11 10 -5 0 -7
-4 -4 -10z"/>
<path d="M3350 3036 c0 -2 -14 -50 -31 -106 -35 -120 -51 -229 -37 -247 6 -7
21 -13 34 -13 19 0 24 5 24 23 0 13 9 66 20 118 24 117 27 229 5 229 -8 0 -15
-2 -15 -4z"/>
<path d="M2155 2989 c-11 -16 -2 -17 30 -3 l30 13 -27 1 c-15 0 -30 -5 -33
-11z"/>
<path d="M2097 2942 c-19 -20 -23 -62 -7 -62 6 0 10 8 10 19 0 10 7 24 15 31
16 14 20 30 7 30 -5 0 -16 -8 -25 -18z"/>
<path d="M6367 2918 c8 -59 13 -61 13 -5 0 26 -4 47 -9 47 -5 0 -7 -19 -4 -42z"/>
<path d="M3590 2935 c-7 -9 -11 -18 -8 -20 7 -8 68 16 68 26 0 15 -47 10 -60
-6z"/>
<path d="M518 2923 c-21 -5 -24 -41 -4 -49 7 -3 26 6 40 19 22 21 24 26 10 31
-17 6 -19 6 -46 -1z"/>
<path d="M132 2901 c4 -13 18 -16 19 -4 0 4 -5 9 -11 12 -7 2 -11 -2 -8 -8z"/>
<path d="M38 2873 l-38 -15 0 -254 c0 -140 2 -254 5 -254 4 0 20 7 36 16 17 8
33 13 37 10 3 -3 12 0 20 7 13 10 14 5 9 -45 -9 -75 -15 -88 -41 -88 -11 0
-31 -3 -43 -6 -22 -6 -23 -11 -23 -120 l0 -114 28 0 c33 0 92 34 92 53 0 8
-18 22 -40 32 -48 21 -51 43 -10 58 32 12 49 51 50 112 1 17 7 41 14 54 8 14
11 31 8 39 -3 8 1 67 8 131 13 112 15 118 52 162 21 26 38 52 38 58 0 6 5 11
10 11 6 0 10 11 10 25 0 14 -4 25 -9 25 -5 0 -13 10 -16 21 -4 12 -23 38 -43
57 -35 36 -35 36 -30 9 3 -17 1 -27 -7 -27 -17 0 -45 -33 -45 -53 0 -17 -33
-41 -43 -31 -3 3 1 24 9 46 15 44 18 84 7 91 -5 3 -25 -2 -45 -10z m81 -377
c-9 -8 -10 -7 -5 7 3 10 7 31 8 45 1 22 2 21 5 -7 3 -19 -1 -38 -8 -45z m-28
1 c-8 -8 -11 -3 -11 19 1 25 2 27 11 11 8 -14 8 -22 0 -30z m26 -69 c-3 -7 -5
-2 -5 12 0 14 2 19 5 13 2 -7 2 -19 0 -25z"/>
<path d="M495 2850 c-3 -5 1 -10 9 -10 9 0 16 5 16 10 0 6 -4 10 -9 10 -6 0
-13 -4 -16 -10z"/>
<path d="M6361 2814 c0 -11 3 -14 6 -6 3 7 2 16 -1 19 -3 4 -6 -2 -5 -13z"/>
<path d="M2556 2415 c-3 -8 -1 -15 4 -15 6 0 10 7 10 15 0 8 -2 15 -4 15 -2 0
-6 -7 -10 -15z"/>
<path d="M2526 2334 c-10 -25 1 -29 14 -5 6 12 7 21 1 21 -5 0 -12 -7 -15 -16z"/>
<path d="M2307 2306 c-6 -15 1 -26 15 -26 11 0 10 27 -1 34 -5 3 -11 0 -14 -8z"/>
<path d="M2325 2251 c-3 -5 -1 -12 5 -16 5 -3 10 -14 10 -24 0 -11 8 -29 18
-42 l19 -22 6 31 c7 34 0 62 -17 74 -15 11 -34 10 -41 -1z"/>
<path d="M4010 2180 c0 -13 5 -20 13 -17 6 2 12 10 12 17 0 7 -6 15 -12 18 -8
2 -13 -5 -13 -18z"/>
<path d="M3891 2168 c-38 -10 -32 -23 17 -33 30 -6 32 -5 32 19 0 28 0 28 -49
14z"/>
<path d="M2252 2045 c0 -16 2 -22 5 -12 2 9 2 23 0 30 -3 6 -5 -1 -5 -18z"/>
<path d="M6486 1924 c-10 -25 1 -29 14 -5 6 12 7 21 1 21 -5 0 -12 -7 -15 -16z"/>
<path d="M6215 1881 c-3 -5 -1 -12 5 -16 5 -3 10 1 10 9 0 18 -6 21 -15 7z"/>
<path d="M4706 711 c-4 -5 -2 -12 3 -15 5 -4 12 -2 15 3 4 5 2 12 -3 15 -5 4
-12 2 -15 -3z"/>
<path d="M4573 693 c-7 -2 -13 -9 -13 -14 0 -6 -11 -21 -25 -35 -25 -25 -32
-44 -17 -44 4 0 13 5 20 12 16 16 28 3 45 -47 18 -52 47 -58 66 -15 16 37 7
52 -14 24 -13 -18 -14 -17 -15 18 0 20 5 49 12 63 10 22 9 28 -3 36 -15 9 -36
10 -56 2z"/>
<path d="M4703 663 c-4 -10 -14 -24 -22 -30 -14 -12 -14 -15 4 -28 32 -25 49
-15 51 30 1 22 -1 32 -3 23 -3 -10 -8 -18 -13 -18 -4 0 -6 9 -3 20 7 25 -5 27
-14 3z"/>
<path d="M3000 579 c0 -5 5 -7 10 -4 6 3 10 8 10 11 0 2 -4 4 -10 4 -5 0 -10
-5 -10 -11z"/>
<path d="M4270 465 c-9 -11 -9 -17 3 -29 13 -13 17 -12 37 10 27 28 17 33 -13
7 -19 -17 -20 -17 -15 5 7 26 5 27 -12 7z"/>
<path d="M5376 435 c4 -9 0 -15 -7 -15 -11 0 -11 -2 1 -10 9 -5 19 -5 24 0 10
10 1 40 -13 40 -6 0 -8 -7 -5 -15z"/>
<path d="M5351 384 c-12 -14 -11 -16 4 -12 10 1 20 9 23 16 5 17 -10 15 -27
-4z"/>
<path d="M4265 230 c4 -6 11 -8 16 -5 14 9 11 15 -7 15 -8 0 -12 -5 -9 -10z"/>
<path d="M4358 194 c-2 -26 1 -48 7 -50 11 -5 12 -114 1 -132 -5 -9 23 -12
108 -12 l116 0 0 39 c0 24 5 41 14 44 10 4 12 -4 8 -39 -4 -42 -4 -44 22 -44
26 0 27 2 25 43 -3 49 5 67 29 67 12 0 13 -3 4 -12 -7 -7 -12 -31 -12 -55 l0
-43 40 0 40 0 0 121 c0 93 -3 119 -12 115 -7 -2 -38 -12 -68 -22 -63 -19 -177
-15 -249 11 -64 22 -69 21 -73 -31z m262 -74 c0 -5 -7 -10 -15 -10 -8 0 -15 5
-15 10 0 6 7 10 15 10 8 0 15 -4 15 -10z m-164 -56 c4 -14 2 -30 -4 -36 -6 -6
-11 2 -14 26 -5 41 8 49 18 10z"/>
<path d="M4799 189 c0 -8 -1 -35 -2 -61 -2 -40 0 -48 15 -48 9 0 20 -4 23 -10
4 -6 -5 -10 -19 -10 -14 0 -26 -3 -26 -7 0 -5 -3 -18 -6 -31 -6 -22 -5 -22 95
-22 l101 0 0 34 c0 47 -33 117 -66 140 -34 24 -114 34 -115 15z"/>
<path d="M2757 109 c-19 -11 -47 -60 -47 -84 0 -29 28 -15 59 31 37 56 32 79
-12 53z"/>
<path d="M188 3 c7 -3 16 -2 19 1 4 3 -2 6 -13 5 -11 0 -14 -3 -6 -6z"/>
</g>
</svg>
